<svg width="77" height="21" viewBox="0 0 77 21" fill="none" xmlns="http://www.w3.org/2000/svg">
<g clip-path="url(#clip0_2237_2012)">
<path d="M49.0488 16.1615V18.27C49.0488 19.8021 49.223 20.2123 49.3935 20.5393V20.6766H43.2886C43.2015 20.5393 43.0859 20.1563 43.0859 19.2547V17.5834C43.0859 14.9582 42.0839 13.7549 39.1082 13.7549H31.4197V20.673H25.5137V0.328857H39.8753C47.9899 0.328857 48.9067 3.55573 48.9067 5.77082V6.04365C48.9067 8.58757 47.0712 10.3094 44.4061 10.884C47.3004 11.5127 49.0488 13.1804 49.0488 16.1615ZM31.4197 9.13321H39.648C42.0555 9.13321 42.7147 8.15033 42.7147 6.97412V6.91811C42.7147 5.77082 42.0555 4.81324 39.648 4.81324H31.4197V9.13321Z" fill="#00F957"/>
<path d="M63.9895 0C73.9643 0 76.8036 5.60096 76.8036 10.0366V10.8623C76.8036 15.2364 73.9624 21.0072 63.9895 21.0072H62.7242C52.7476 21.0072 49.9102 15.2364 49.9102 10.8623V10.042C49.9102 5.61181 52.7514 0.00542007 62.7242 0.00542007L63.9895 0ZM63.3588 4.6488C57.3959 4.6488 56.0473 7.74017 56.0473 10.2498V10.6328C56.0473 13.0936 57.4812 16.3187 63.3588 16.3187C69.35 16.3187 70.6684 13.0936 70.6684 10.6328V10.2498C70.6684 7.74017 69.3785 4.6488 63.3588 4.6488V4.6488Z" fill="#00F957"/>
<path d="M0 0.328857H15.5587C21.6636 0.328857 23.1847 2.87278 23.1847 5.14207V5.44199C23.1847 7.98591 20.8605 9.27052 19.2562 9.46204C21.6637 9.78906 24.2454 11.2399 24.2454 14.4939V14.7938C24.2454 17.5563 22.4952 20.673 15.644 20.673H0V0.328857ZM5.89845 4.56752V8.20453H14.7064C16.4831 8.20453 17.0286 7.38426 17.0286 6.42668V6.37248C17.0286 5.38779 16.4604 4.56571 14.7064 4.56571L5.89845 4.56752ZM5.89845 12.1957V16.2157H15.1591C17.2635 16.2157 17.8317 15.1985 17.8317 14.165V14.0548C17.8317 13.0448 17.2635 12.1957 15.1666 12.1957H5.89845Z" fill="#00F957"/>
</g>
<defs>
<clipPath id="clip0_2237_2012">
<rect width="77" height="21" fill="white"/>
</clipPath>
</defs>
</svg>
