<svg width="1506" height="221" viewBox="0 0 1506 221" fill="none" xmlns="http://www.w3.org/2000/svg">
<path d="M483.444 168.623V190.063C483.444 205.668 485.116 209.837 486.789 213.171V214.552H427.279C426.442 213.171 425.318 209.264 425.318 200.067V183.082C425.318 156.327 415.544 144.082 386.481 144.082H311.577V214.552H254V7.31128H394.008C473.094 7.31128 482.032 40.1884 482.032 62.7491V65.5367C482.032 91.4581 464.156 108.991 438.151 114.852C466.403 121.261 483.444 138.273 483.444 168.623ZM311.577 97.0331H391.786C415.256 97.0331 421.686 87.0032 421.686 75.0195V74.4724C421.686 62.7752 415.256 53.0319 391.786 53.0319H311.577V97.0331Z" fill="#00F957"/>
<path d="M629.072 4C726.322 4 754 61.1052 754 106.227V114.589C754 159.163 726.322 217.936 629.072 217.936H616.762C519.512 217.936 491.835 159.163 491.835 114.589V106.227C491.835 61.1052 519.512 4 616.762 4H629.072V4ZM622.904 51.3619C564.779 51.3619 551.633 82.8322 551.633 108.467V112.375C551.633 137.436 565.615 170.314 622.904 170.314C681.317 170.314 694.176 137.436 694.176 112.375V108.467C694.176 82.8322 681.605 51.3619 622.904 51.3619Z" fill="#00F957"/>
<path d="M3 7.93591H154.743C214.253 7.93591 229.072 33.8573 229.072 56.9651V60.0131C229.072 85.9345 206.439 99.0124 190.784 100.966C214.253 104.301 239.422 119.072 239.422 152.21V155.284C239.422 183.42 222.382 215.177 155.579 215.177H3V7.93591ZM60.5765 51.1035V88.1489H146.379C163.707 88.1489 169.013 79.7863 169.013 70.043V69.4959C169.013 59.466 163.42 51.1035 146.379 51.1035H60.5765ZM60.5765 128.841V169.795H150.849C171.26 169.795 176.853 159.478 176.853 148.901V147.781C176.853 137.465 171.26 128.841 150.849 128.841H60.5765Z" fill="#00F957"/>
<path d="M816.034 60H860.285C868.443 60 874.989 61.8873 879.925 65.6277C884.861 69.368 887.329 75.03 887.329 82.6136C887.329 87.2118 886.198 91.158 883.935 94.4179C881.673 97.7121 878.485 100.217 874.304 102.002V102.242C879.925 103.443 884.175 106.085 887.055 110.203C889.934 114.321 891.373 119.502 891.373 125.713C891.373 129.282 890.722 132.61 889.454 135.733C888.186 138.856 886.163 141.532 883.456 143.763C880.748 146.028 877.252 147.812 873.001 149.116C868.751 150.42 863.678 151.106 857.817 151.106H816V60H816.034ZM831.973 98.1582H857.988C861.827 98.1582 865.015 97.0601 867.551 94.8983C870.088 92.7365 871.39 89.6138 871.39 85.5303C871.39 80.9321 870.259 77.7065 867.963 75.8192C865.666 73.9319 862.341 73.0054 858.023 73.0054H832.007V98.1582H831.973ZM831.973 138.101H860.148C864.981 138.101 868.751 136.831 871.425 134.326C874.098 131.821 875.435 128.252 875.435 123.654C875.435 119.159 874.098 115.693 871.425 113.257C868.751 110.82 864.981 109.619 860.148 109.619H831.973V138.101Z" fill="#00F957"/>
<path d="M898.743 85.1554H912.385V97.9205H912.625C913.036 96.1361 913.893 94.3861 915.127 92.6703C916.361 90.9546 917.835 89.4104 919.583 88.0035C921.331 86.5966 923.25 85.4642 925.376 84.6063C927.501 83.7484 929.66 83.3367 931.888 83.3367C933.602 83.3367 934.767 83.371 935.384 83.4739C936.035 83.5769 936.687 83.6455 937.372 83.7141V97.7489C936.344 97.5774 935.316 97.4401 934.253 97.3029C933.19 97.1656 932.162 97.097 931.134 97.097C928.666 97.097 926.335 97.5774 924.176 98.5725C922.016 99.5676 920.131 101.009 918.486 102.896C916.875 104.818 915.607 107.186 914.647 109.965C913.722 112.779 913.242 116.004 913.242 119.676V151.074H898.709V85.1554H898.743Z" fill="#00F957"/>
<path d="M996.841 136.46C996.841 138.245 997.081 139.514 997.561 140.304C998.007 141.058 998.932 141.436 1000.3 141.436C1000.71 141.436 1001.23 141.436 1001.85 141.436C1002.43 141.436 1003.11 141.367 1003.9 141.196V151.284C1003.39 151.456 1002.74 151.627 1001.91 151.868C1001.09 152.074 1000.27 152.279 999.412 152.451C998.555 152.623 997.698 152.76 996.875 152.828C996.019 152.897 995.299 152.966 994.716 152.966C991.734 152.966 989.266 152.382 987.312 151.181C985.359 149.98 984.09 147.921 983.474 144.936C980.594 147.75 977.03 149.774 972.814 151.078C968.598 152.348 964.553 153 960.646 153C957.664 153 954.819 152.588 952.111 151.799C949.403 150.975 947.004 149.809 944.913 148.23C942.822 146.652 941.177 144.661 939.943 142.225C938.709 139.789 938.092 136.975 938.092 133.749C938.092 129.666 938.846 126.337 940.32 123.798C941.794 121.259 943.747 119.234 946.181 117.793C948.615 116.352 951.322 115.288 954.339 114.67C957.355 114.018 960.406 113.538 963.456 113.195C966.095 112.68 968.598 112.337 970.963 112.097C973.328 111.891 975.453 111.513 977.269 110.999C979.086 110.484 980.526 109.695 981.588 108.631C982.651 107.567 983.165 105.989 983.165 103.861C983.165 101.974 982.719 100.464 981.828 99.2628C980.937 98.0618 979.84 97.1696 978.503 96.5176C977.201 95.8656 975.727 95.4539 974.116 95.248C972.505 95.0421 970.963 94.9391 969.523 94.9391C965.444 94.9391 962.085 95.797 959.446 97.4784C956.807 99.1942 955.333 101.802 954.99 105.405H940.457C940.697 101.15 941.725 97.6157 943.507 94.8018C945.29 91.988 947.552 89.7575 950.328 88.0418C953.105 86.326 956.224 85.1594 959.686 84.4731C963.182 83.7868 966.747 83.4436 970.38 83.4436C973.602 83.4436 976.79 83.7868 979.943 84.4731C983.096 85.1594 985.907 86.2574 988.409 87.8016C990.911 89.3458 992.934 91.3017 994.476 93.7381C996.019 96.1745 996.773 99.1255 996.773 102.591V136.46H996.841ZM982.308 118.067C980.08 119.509 977.372 120.401 974.15 120.675C970.928 120.984 967.672 121.43 964.45 122.014C962.908 122.254 961.434 122.631 959.994 123.112C958.555 123.592 957.286 124.21 956.155 125.033C955.059 125.857 954.167 126.921 953.55 128.225C952.899 129.529 952.591 131.141 952.591 133.029C952.591 134.642 953.071 136.014 953.996 137.112C954.921 138.21 956.053 139.102 957.389 139.72C958.692 140.372 960.166 140.818 961.708 141.058C963.285 141.299 964.69 141.436 965.993 141.436C967.604 141.436 969.352 141.23 971.203 140.784C973.088 140.372 974.836 139.652 976.481 138.622C978.126 137.593 979.532 136.289 980.629 134.744C981.725 133.166 982.274 131.244 982.274 128.945V118.067H982.308Z" fill="#00F957"/>
<path d="M1008.98 60.0012H1023.51V73.7958H1008.98V60.0012ZM1008.98 85.1541H1023.51V151.142H1008.98V85.1541Z" fill="#00F957"/>
<path d="M1034.17 85.1516H1047.95V94.8627L1048.19 95.1029C1050.38 91.4312 1053.29 88.583 1056.86 86.4898C1060.42 84.3966 1064.4 83.3672 1068.72 83.3672C1075.95 83.3672 1081.64 85.2545 1085.79 88.9948C1089.93 92.7352 1092.03 98.3628 1092.03 105.843V151.139H1077.49V109.652C1077.32 104.471 1076.22 100.696 1074.17 98.3628C1072.15 96.0294 1068.92 94.8627 1064.6 94.8627C1062.14 94.8627 1059.94 95.3088 1057.99 96.201C1056.04 97.0932 1054.39 98.3285 1053.02 99.907C1051.65 101.485 1050.59 103.338 1049.83 105.466C1049.08 107.594 1048.7 109.858 1048.7 112.226V151.174H1034.17V85.1516V85.1516Z" fill="#00F957"/>
<path d="M1102.76 60.0012H1146.22C1156.26 60.0012 1163.77 62.1631 1168.77 66.5211C1173.78 70.8447 1176.28 76.9185 1176.28 84.6394C1176.28 88.963 1175.63 92.5661 1174.36 95.4142C1173.09 98.2624 1171.58 100.561 1169.9 102.312C1168.19 104.062 1166.51 105.297 1164.86 106.086C1163.22 106.841 1161.98 107.356 1161.23 107.63V107.871C1162.6 108.042 1164.04 108.454 1165.62 109.14C1167.19 109.827 1168.67 110.89 1170.01 112.4C1171.38 113.876 1172.51 115.832 1173.4 118.199C1174.29 120.567 1174.74 123.553 1174.74 127.121C1174.74 132.474 1175.15 137.347 1175.93 141.739C1176.76 146.132 1177.99 149.254 1179.71 151.107H1162.64C1161.44 149.151 1160.75 146.99 1160.54 144.588C1160.34 142.22 1160.24 139.921 1160.24 137.69C1160.24 133.538 1160 129.935 1159.48 126.915C1158.97 123.896 1158.04 121.391 1156.67 119.4C1155.3 117.41 1153.45 115.935 1151.12 115.008C1148.79 114.082 1145.77 113.601 1142.14 113.601H1118.69V151.142H1102.76V60.0012V60.0012ZM1118.69 101.488H1144.81C1149.92 101.488 1153.79 100.287 1156.43 97.8506C1159.07 95.4142 1160.37 91.7769 1160.37 86.9384C1160.37 84.056 1159.96 81.6883 1159.11 79.8696C1158.25 78.0509 1157.08 76.6097 1155.61 75.5802C1154.14 74.5508 1152.42 73.8645 1150.5 73.5213C1148.58 73.1782 1146.63 73.0066 1144.57 73.0066H1118.69V101.488V101.488Z" fill="#00F957"/>
<path d="M1214.02 152.928C1208.74 152.928 1204.04 152.07 1199.93 150.32C1195.81 148.57 1192.32 146.167 1189.47 143.113C1186.63 140.059 1184.47 136.388 1182.96 132.133C1181.49 127.878 1180.73 123.211 1180.73 118.098C1180.73 113.088 1181.49 108.455 1182.96 104.2C1184.43 99.9452 1186.63 96.2735 1189.47 93.2195C1192.32 90.1654 1195.81 87.7634 1199.93 86.0133C1204.04 84.2633 1208.74 83.4054 1214.02 83.4054C1219.29 83.4054 1223.99 84.2633 1228.1 86.0133C1232.22 87.7634 1235.71 90.1654 1238.56 93.2195C1241.4 96.2735 1243.56 99.9452 1245.07 104.2C1246.54 108.455 1247.3 113.088 1247.3 118.098C1247.3 123.211 1246.54 127.878 1245.07 132.133C1243.6 136.388 1241.4 140.059 1238.56 143.113C1235.71 146.167 1232.22 148.57 1228.1 150.32C1223.99 152.035 1219.29 152.928 1214.02 152.928ZM1214.02 141.432C1217.24 141.432 1220.05 140.746 1222.41 139.407C1224.78 138.035 1226.73 136.25 1228.27 134.054C1229.82 131.858 1230.91 129.353 1231.67 126.574C1232.39 123.794 1232.76 120.98 1232.76 118.098C1232.76 115.284 1232.42 112.47 1231.67 109.691C1230.95 106.877 1229.82 104.406 1228.27 102.21C1226.73 100.048 1224.78 98.2638 1222.41 96.9255C1220.05 95.5529 1217.24 94.9009 1214.02 94.9009C1210.79 94.9009 1207.98 95.5872 1205.62 96.9255C1203.22 98.2981 1201.3 100.048 1199.76 102.21C1198.21 104.372 1197.12 106.877 1196.4 109.691C1195.68 112.504 1195.3 115.318 1195.3 118.098C1195.3 120.98 1195.68 123.828 1196.4 126.574C1197.12 129.353 1198.25 131.824 1199.76 134.054C1201.3 136.285 1203.25 138.069 1205.62 139.407C1207.98 140.746 1210.79 141.432 1214.02 141.432Z" fill="#00F957"/>
<path d="M1299.19 107.224C1298.61 103.14 1296.96 100.052 1294.29 97.9588C1291.62 95.8656 1288.22 94.8362 1284.14 94.8362C1282.26 94.8362 1280.27 95.145 1278.15 95.797C1276.02 96.449 1274.07 97.6157 1272.28 99.3657C1270.5 101.116 1269.03 103.552 1267.83 106.641C1266.63 109.763 1266.05 113.812 1266.05 118.822C1266.05 121.533 1266.36 124.278 1267.01 126.989C1267.66 129.7 1268.65 132.137 1270.06 134.264C1271.46 136.392 1273.28 138.107 1275.47 139.446C1277.67 140.75 1280.37 141.436 1283.49 141.436C1287.74 141.436 1291.24 140.132 1294.02 137.49C1296.76 134.847 1298.51 131.141 1299.19 126.372H1313.72C1312.35 134.985 1309.1 141.539 1303.96 146.103C1298.81 150.667 1291.99 152.931 1283.49 152.931C1278.32 152.931 1273.72 152.074 1269.78 150.323C1265.84 148.573 1262.48 146.206 1259.77 143.186C1257.07 140.166 1254.98 136.563 1253.6 132.411C1252.2 128.259 1251.51 123.729 1251.51 118.891C1251.51 113.95 1252.2 109.317 1253.54 104.993C1254.91 100.67 1256.93 96.8951 1259.67 93.7038C1262.38 90.5125 1265.77 88.0075 1269.82 86.1888C1273.86 84.3701 1278.59 83.4436 1284.04 83.4436C1287.88 83.4436 1291.51 83.924 1294.94 84.9191C1298.37 85.9143 1301.45 87.3555 1304.13 89.3115C1306.8 91.2674 1308.99 93.7381 1310.71 96.7235C1312.42 99.7089 1313.42 103.243 1313.76 107.327H1299.19V107.224Z" fill="#00F957"/>
<path d="M1321.06 60.0012H1335.59V111.817L1361.85 85.1541H1379.71L1354.44 109.415L1382.11 151.142H1364.38L1344.23 119.092L1335.56 127.533V151.142H1321.02V60.0012H1321.06Z" fill="#00F957"/>
<path d="M1392.63 121.907C1392.63 124.446 1392.97 126.917 1393.72 129.319C1394.44 131.686 1395.54 133.78 1396.98 135.564C1398.42 137.348 1400.24 138.79 1402.47 139.853C1404.66 140.917 1407.3 141.432 1410.38 141.432C1414.63 141.432 1418.06 140.505 1420.67 138.687C1423.27 136.868 1425.19 134.123 1426.46 130.451H1440.24C1439.48 134.02 1438.15 137.211 1436.3 140.025C1434.41 142.839 1432.18 145.207 1429.54 147.094C1426.9 149.015 1423.96 150.457 1420.7 151.418C1417.41 152.378 1414.02 152.893 1410.42 152.893C1405.24 152.893 1400.65 152.035 1396.64 150.354C1392.63 148.638 1389.27 146.27 1386.49 143.216C1383.72 140.162 1381.66 136.491 1380.25 132.235C1378.85 127.98 1378.16 123.314 1378.16 118.201C1378.16 113.534 1378.92 109.073 1380.39 104.852C1381.87 100.631 1383.99 96.9254 1386.77 93.7341C1389.51 90.5428 1392.87 88.0035 1396.78 86.1505C1400.68 84.2975 1405.1 83.3367 1410.04 83.3367C1415.22 83.3367 1419.88 84.4347 1423.99 86.5966C1428.1 88.7584 1431.53 91.6409 1434.24 95.2096C1436.95 98.7784 1438.94 102.896 1440.17 107.529C1441.4 112.161 1441.71 116.965 1441.13 121.872H1392.63V121.907ZM1426.53 112.333C1426.36 110.034 1425.88 107.838 1425.05 105.71C1424.23 103.582 1423.13 101.729 1421.73 100.151C1420.32 98.5725 1418.61 97.3029 1416.62 96.3077C1414.63 95.3469 1412.41 94.8322 1409.94 94.8322C1407.4 94.8322 1405.07 95.2783 1402.98 96.1705C1400.89 97.0626 1399.11 98.298 1397.63 99.8765C1396.16 101.455 1394.96 103.308 1394.07 105.436C1393.18 107.563 1392.7 109.862 1392.59 112.333H1426.53V112.333Z" fill="#00F957"/>
<path d="M1441.37 85.1555H1452.34V65.3557H1466.87V85.1555H1480V95.999H1466.87V131.24C1466.87 132.785 1466.94 134.089 1467.08 135.187C1467.22 136.285 1467.49 137.211 1467.97 138.001C1468.45 138.755 1469.13 139.339 1470.06 139.716C1470.99 140.094 1472.25 140.3 1473.9 140.3C1474.93 140.3 1475.92 140.265 1476.95 140.231C1477.98 140.197 1478.97 140.025 1480 139.785V151.006C1478.39 151.178 1476.81 151.349 1475.27 151.521C1473.73 151.692 1472.15 151.761 1470.54 151.761C1466.7 151.761 1463.62 151.383 1461.29 150.663C1458.95 149.942 1457.1 148.878 1455.8 147.471C1454.5 146.065 1453.57 144.315 1453.13 142.187C1452.65 140.059 1452.37 137.623 1452.3 134.912V95.999H1441.34V85.1555H1441.37Z" fill="#00F957"/>
</svg>
